<?xml version="1.0" standalone="no"?>
<!DOCTYPE svg PUBLIC "-//W3C//DTD SVG 20010904//EN"
 "http://www.w3.org/TR/2001/REC-SVG-20010904/DTD/svg10.dtd">
<svg version="1.0" xmlns="http://www.w3.org/2000/svg"
 width="700.000000pt" height="700.000000pt" viewBox="0 0 700.000000 700.000000"
 preserveAspectRatio="xMidYMid meet">
<metadata>
Created by potrace 1.11, written by Peter Selinger 2001-2013
</metadata>
<g transform="translate(0.000000,700.000000) scale(0.100000,-0.100000)"
fill="#000000" stroke="none">
<path d="M2457 5749 c-152 -36 -285 -182 -305 -336 -4 -32 -7 -906 -6 -1943 1
-1731 2 -1889 18 -1940 34 -112 117 -205 232 -256 78 -36 207 -42 286 -15 44
15 187 95 708 399 19 11 54 31 76 44 43 24 538 312 564 328 19 12 424 246 470
272 19 11 230 133 467 272 238 138 450 260 470 271 21 11 40 22 43 25 3 3 17
12 33 20 15 8 93 53 174 100 81 47 169 98 197 114 102 57 155 98 194 149 123
158 114 375 -20 518 -45 47 -78 71 -188 133 -85 49 -76 44 -220 128 -69 40
-134 78 -145 84 -11 6 -39 22 -62 37 -24 15 -45 27 -48 27 -3 0 -23 11 -45 25
-31 20 -258 151 -457 266 -17 9 -127 74 -245 142 -192 112 -1212 704 -1723
1000 -129 75 -222 122 -260 132 -64 16 -148 18 -208 4z"/>
</g>
</svg>
